<svg xmlns="http://www.w3.org/2000/svg" xmlns:xlink="http://www.w3.org/1999/xlink" id="Layer_1" x="0px" y="0px" viewBox="0 0 531.2 224.7" style="enable-background:new 0 0 531.2 224.7;" xml:space="preserve"><style type="text/css">	.st0{fill:#FDB714;}</style><g id="XMLID_480_">	<path id="XMLID_2125_" class="st0" d="M241.8,0c-0.1,4.8-0.1,9.6-0.2,14.4c-0.1,2.3,0.9,3.2,3.2,3.1c2.5-0.1,4.9,0.1,7.4,0  c20.1-0.9,29.6,15.9,27.5,31.8c-1.9,14.6-12,23.4-26.8,23.6c-3.5,0-7.1,0-11.2,0c0,4.6-0.2,8.8,0.1,13c0.2,3.4-1.2,4.3-4.3,4.2  c-3.4-0.2-6.9-0.1-10.3,0c-2.6,0.1-3.8-0.8-3.6-3.5c0.2-3.6,0-7.1,0.1-10.7c0-2.1-0.8-3-2.9-2.9c-3.6,0.1-7.1,0.1-10.7-0.1  c-13.7-0.8-23.1-10-24.7-24c-1.7-13.8,5.5-26.6,17.6-29.9c5.2-1.4,10.8-1.2,16.3-1.3c3.3,0,4.7-0.9,4.5-4.4  c-0.2-4.4,0-8.8,0.1-13.1C229.7,0,235.7,0,241.8,0z M223.5,45.3c0-10.3,0-10.3-10.2-9.9c-6.1,0.2-9.6,3.8-9.6,9.9  c0,6,3.5,9.7,9.6,9.9C223.5,55.5,223.5,55.5,223.5,45.3z M241.6,45.2c0,10.3,0,10.3,10.2,9.9c6-0.2,9.5-4,9.4-10  c-0.1-5.9-3.5-9.5-9.3-9.7C241.6,34.9,241.6,34.9,241.6,45.2z"></path>	<path id="XMLID_2124_" class="st0" d="M89.6,0c3.9,8.5,8.1,16.9,11.7,25.6c16,39.2,31.9,78.4,47.7,117.6c0.7,1.8,1.5,4.4,0.8,5.8  c-1.2,2.1-3.5,4.4-5.8,5c-3.2,0.8-5.7-1.4-6.9-4.5c-4.1-10-8.3-20-12.3-30C112.5,89.4,100.3,59.3,88,29.3c-0.4-1.1-1-2.1-2-4  c-3.2,7.7-6,14.5-8.7,21.3C63.8,80,50.2,113.3,36.7,146.7c-0.4,1-0.8,2-1.3,3c-1.9,3.7-5.6,5.4-8.8,3.9c-3.6-1.6-5.1-5.3-3.5-9.3  c2.8-7.3,5.8-14.5,8.8-21.7C47.6,84.3,63.2,46,78.8,7.7C79.9,5,81.6,2.6,83.1,0C85.2,0,87.4,0,89.6,0z"></path>	<path id="XMLID_483_" class="st0" d="M524.6,0c0,4.7-0.2,9.3,0.1,14c0.2,3.2-0.7,4.5-4.1,4.2c-4.4-0.3-8.8,0.2-13.1-0.1  c-3.9-0.3-5.2,0.9-5.1,5c0.2,20.5,0,41.1,0.2,61.6c0,3.8-0.8,5.6-4.9,5.1s-9.7,1-12.1-1.2c-2.1-1.9-0.9-7.7-0.9-11.7  c-0.1-17.8-0.1-35.6,0.1-53.4c0-4-0.8-5.8-5.2-5.4c-3.9,0.4-7.9-0.2-11.9,0.1c-4,0.3-5.7-0.7-5.3-5.1c0.4-4.3-0.1-8.7-0.1-13.1  C483,0,503.8,0,524.6,0z"></path>	<path id="XMLID_2122_" class="st0" d="M0,212.2c0.5-0.4,1.2-0.7,1.6-1.2c17.1-21.8,42.9-28.1,69.4-17.4c8.1,3.2,15.8,7.6,23.6,11.5  c9.5,4.8,19.4,8.2,30.2,8.4c13.9,0.3,24.9-5.3,33.4-16.2c3.3-4.2,6.6-5.1,11.6-3.4c3.4,1.2,4.6,3.9,2.3,6.7  c-11.6,13.8-25.8,23-44.5,24c-14.5,0.7-27.3-4.8-40-10.8c-8.2-3.8-16.1-8.4-24.6-11.3c-19.4-6.8-35.3-1.9-48.4,14  c-4.2,5.1-9.8,5.7-14.6,1.6C0,216,0,214.1,0,212.2z"></path>	<path id="XMLID_2121_" class="st0" d="M0,172.7c3.2-1,6.3-2.9,9.5-2.9c51.4-0.2,102.7-0.2,154.1,0c2.6,0,5.5,0.8,7.7,2.1  c2.9,1.7,2.9,4.9,0,6.7c-2,1.2-4.6,2.1-6.9,2.1c-51.9,0.1-103.8,0.1-155.7,0c-2.9,0-5.8-1.9-8.7-3C0,176,0,174.3,0,172.7z"></path>	<path id="XMLID_2120_" class="st0" d="M349.5,0c3.6,6.4,2.2,8.6-5.4,8.6c-12.2,0-24.4,0.1-36.6-0.1c-3.1,0-4,0.9-4,4  c0.1,21.5,0.2,43,0,64.6c0,3.7,1.1,4.6,4.7,4.6c12.2-0.2,24.4-0.1,36.6-0.1c1.1,0,2.5-0.3,3.2,0.2c1.4,1,3.3,2.6,3.3,4  c0,1.3-2,2.7-3.4,3.8c-0.6,0.5-1.9,0.2-2.8,0.2c-14.4,0-28.8,0-43.2,0c-5.5,0-6.4-1-6.4-6.5c0-24.9-0.1-49.9,0.1-74.8  c0-2.8,1.4-5.6,2.1-8.4C315,0,332.2,0,349.5,0z"></path>	<path id="XMLID_482_" class="st0" d="M292.1,224.4c0-17.5,0-34.4,0-51.2c0-11.4,0.1-22.7-0.1-34.1c0-2.8,0.7-3.9,3.7-3.9  c10.7,0.1,21.4,0,32,0.1c10.5,0.2,18.7,4.6,22.7,14.6c4.1,10.3,3.7,20.4-4.5,29c-0.3,0.3-0.4,0.7-0.8,1.3  c5.6,4.9,8.7,10.9,8.7,18.6c-0.1,13.9-13.1,26.7-26,25.8c-10.3-0.8-20.8-0.2-31.2-0.2C295.2,224.4,293.9,224.4,292.1,224.4z   M319.6,189.1L319.6,189.1c-1.9,0-3.8,0.1-5.7-0.1c-2.9-0.3-3.9,0.9-3.8,3.8c0.2,3.5,0.1,7.1,0,10.7c-0.1,2.4,0.6,3.6,3.2,3.5  c4.4-0.1,8.8,0.1,13.1-0.1c5-0.2,8.5-4,8.5-8.8c0.1-4.7-3.4-8.6-8.3-9C324.2,188.9,321.9,189.1,319.6,189.1z M319.6,171.2  c2.2,0,4.4,0.1,6.5,0c4.8-0.2,7.8-3.6,8-8.6c0.2-5.2-2.8-8.9-7.7-9.3c-2.6-0.2-5.2-0.1-7.8-0.1c-8.6,0-8.6,0-8.6,8.7  C310.1,171.2,310.1,171.2,319.6,171.2z"></path>	<path id="XMLID_2115_" class="st0" d="M246.2,177.3c-0.6,0.9-1,1.9-1.7,2.7c-12.3,13.8-24.7,27.6-36.9,41.5c-2,2.3-3.9,3.7-7.4,2.5  c-0.1-1-0.2-2.1-0.2-3.3c0-26.5,0-52.9-0.1-79.4c0-3.2,0.7-4.5,4.1-4.3c3.1,0.3,6.3,0.2,9.4,0c3.1-0.2,4,1,4,4.1  c-0.1,13-0.1,26-0.1,39.1c0,1.2,0.1,2.3,0.2,4.2c1.2-1,1.9-1.5,2.4-2.2c12.7-14.8,25.3-29.5,38-44.3c0.7-0.8,1.4-1.8,2.3-2.3  c2.5-1.5,4.6-0.3,4.6,2.5c0,27.1,0,54.3,0.1,81.4c0,2.5-0.8,3.5-3.3,3.3c-3.4-0.2-6.9-0.2-10.3,0c-3,0.2-3.7-1.1-3.7-3.8  c0.1-12.3,0-24.7,0-37c0-1.3,0-2.6,0-3.9C247.2,177.9,246.7,177.6,246.2,177.3z"></path>	<path id="XMLID_2114_" class="st0" d="M531.2,224.4c-6.2,0-12,0.2-17.7-0.1c-1.1-0.1-2.7-1.6-3.2-2.8c-5.1-13-10-26-15-39.1  c-0.4-1.1-0.9-2.3-1.6-4.2c-0.8,1.7-1.3,2.8-1.7,3.8c-5,13-10,26.1-14.8,39.2c-1,2.7-2.4,3.4-5.1,3.3c-5.3-0.2-10.6-0.1-16.5-0.1  c3.4-8.5,6.5-16.3,9.7-24.2c8.3-20.6,16.6-41.1,25.1-61.6c0.6-1.4,2.2-2.3,3.3-3.5c1.1,1.2,2.7,2.1,3.3,3.5  c11.4,27.6,22.6,55.2,33.8,82.9C531,222.3,531,223.1,531.2,224.4z"></path>	<path id="XMLID_2113_" class="st0" d="M430.6,22c-16.9-5.5-27.6-3.5-35.2,6c-6.6,8.4-7.3,22.3-1.4,31.8c6.7,11,15.7,12.9,38.3,8.2  c0.7,5.3,1.5,10.5,1.9,15.8c0.1,0.8-1.4,2.3-2.5,2.6c-20.4,6.7-43.9,1.3-54.8-19.2c-10.8-20.2-5.2-46.6,13-58.8  c12.1-8.1,25.5-9.2,39.4-5.3c2.5,0.7,3.6,1.9,3,4.7C431.5,12.4,431.2,17.1,430.6,22z"></path>	<path id="XMLID_2112_" class="st0" d="M86.1,99.6c-3.6,8.7-6.7,16.3-9.8,24c-3.4,8.4-6.7,16.8-10.2,25.1c-1.8,4.4-5.4,6.4-8.9,5  c-4-1.5-5.5-5.6-3.6-10.3c8.6-21.2,17.3-42.3,25.9-63.4c1.3-3.2,3.3-5.5,6.9-5.4c3.5,0.1,5.6,2.3,6.9,5.5  c8.6,21.3,17.2,42.6,25.8,64c1.7,4.3,0.3,8.2-3.4,9.7c-3.3,1.4-7.2-0.4-8.9-4.4c-6.3-15-12.4-30.1-18.6-45.2  C87.7,102.9,87.1,101.8,86.1,99.6z"></path>	<path id="XMLID_2111_" class="st0" d="M403,150.4c-3,7.6-5.7,14.1-8.3,20.6c-6.4,16.2-12.8,32.3-19.2,48.5  c-0.3,0.6-0.6,1.2-0.8,1.9c-1.1,2.9-3.4,3.8-5.9,2.7s-2.6-3.6-1.7-6c2.5-6.2,5-12.5,7.5-18.7c7.9-19.7,15.7-39.4,23.8-59.1  c0.8-2,3-3.4,4.6-5.1c1.6,1.7,3.8,3,4.6,5c10.2,25.2,20.3,50.6,30.3,75.9c1.1,2.9,3.2,6.4-1.1,8.1c-4.1,1.6-5.3-2-6.5-5  c-8.5-21.4-16.9-42.8-25.4-64.2C404.5,153.9,404,152.7,403,150.4z"></path>	<path id="XMLID_2110_" class="st0" d="M331.6,16.7c4.9,0,9.9,0,14.8,0c2.8,0,5.1,1,5.1,4.1s-2.4,3.9-5.2,3.9  c-7.7,0-15.3,0.1-23-0.1c-3.5-0.1-3.6,1.7-3.7,4.3c0,2.6,0.3,4.2,3.5,4c5.1-0.2,10.1,0,15.2-0.1c2.9,0,5.5,0.6,5.5,4  s-2.5,4.1-5.4,4.1c-7.1,0-14.2-0.1-21.3,0c-3.8,0-5.5-1.7-5.4-5.5c0.1-4.4,0-8.8,0-13.1c0-4.4,1.2-5.7,5.6-5.7  C322,16.6,326.8,16.7,331.6,16.7z"></path>	<path id="XMLID_481_" class="st0" d="M331.6,73.5c-4.7,0-9.3,0-14,0c-4.7-0.1-5.9-1.3-5.9-5.8s0-9,0-13.6c0-3.2,1.6-4.9,4.7-4.9  c7.7-0.1,15.4-0.2,23,0.2c1.6,0.1,4,2.2,4.3,3.7c0.6,2.7-1.7,4.2-4.3,4.2c-5.5,0.1-11,0.2-16.4,0c-3.4-0.1-3.2,1.9-3.3,4.2  c-0.1,2.4,0.2,3.9,3.2,3.8c7.5-0.2,15.1,0,22.6-0.1c3,0,5.9,0.6,5.9,4.1c0.1,3.6-2.9,4.1-5.9,4.1C340.9,73.5,336.2,73.5,331.6,73.5  z"></path>	<path id="XMLID_2108_" class="st0" d="M403.2,209.2c3.3,0,6.6,0.1,9.9,0c3.6-0.2,5.7,1.3,6.9,4.6c0.6,1.8,1.9,3.6,2,5.3  c0,1.7-0.6,4.3-1.9,5c-1.8,1-4.7,0.8-5.4-1.9c-1.2-4.6-4.4-4.9-8.2-4.6c-2.2,0.1-4.4,0.2-6.6,0c-4-0.4-7.1,0.1-8.7,4.7  c-0.4,1.1-3.7,2.3-4.9,1.8c-1.2-0.5-2.2-3.2-2-4.9c0.2-2.2,1.1-4.7,2.5-6.4c1.3-1.6,3.4-3.1,5.4-3.4  C395.7,208.8,399.5,209.2,403.2,209.2z"></path>	<path id="XMLID_2107_" class="st0" d="M402.6,193.2c-1.2-3-2-5.4-3-7.8c-1.1-2.6-0.6-5.1,2-5.7c1.5-0.3,4.4,0.9,5.2,2.3  c2.3,4.3,4.1,9,5.7,13.6c1.2,3.4-0.5,5.7-4.1,5.9c-3.4,0.2-6.8,0-10.3,0.1c-2.7,0-4.7-1.1-4.8-3.9c-0.1-3.2,2.1-4.1,4.9-4.2  C399.4,193.4,400.6,193.3,402.6,193.2z"></path></g></svg>